<svg viewBox="0 0 500 500" fill="none" xmlns="http://www.w3.org/2000/svg">
<g clip-path="url(#clip0_2_2)">
<path d="M250 325C291.421 325 325 291.421 325 250C325 208.579 291.421 175 250 175C208.579 175 175 208.579 175 250C175 291.421 208.579 325 250 325Z" stroke="#57ABFF" stroke-width="10"/>
<path d="M166.747 414.024C126.421 367.125 144.908 276.247 151.675 260.477C183.266 186.863 214.679 183.329 242.844 178.585C257.972 170.743 249.518 169.976 249.518 169.976C215.479 171.782 186.102 176.463 156.768 217.853C124.694 263.109 112.441 364.192 159.801 425.689C225.542 475.735 305.262 478.551 357.451 463.458C297.919 465.627 207.073 460.922 166.747 414.024Z" fill="#57ABFF"/>
<path d="M379.958 379.467C322.893 403.326 242.176 357.662 229.269 346.352C169.02 293.56 175.366 262.592 179.558 234.34C176.774 217.529 173.432 225.332 173.432 225.332C164.631 258.263 160.005 287.648 190.305 328.337C223.434 372.826 315.784 415.716 388.906 389.677C456.817 342.619 484.131 267.671 485.903 213.373C469.57 270.662 437.023 355.607 379.958 379.467Z" fill="#57ABFF"/>
<path d="M412.977 166.017C418.035 227.661 349.663 290.317 334.918 299.098C266.092 340.084 238.601 324.479 213.027 311.762C196.179 309.214 202.567 314.804 202.567 314.804C231.166 333.35 257.684 346.831 305.744 330.587C358.293 312.827 427.622 238.252 425.453 160.662C401.684 81.5328 338.845 32.3954 287.752 13.9305C337.189 47.1677 407.92 104.372 412.977 166.017Z" fill="#57ABFF"/>
<path d="M220.17 68.6515C280.361 82.8906 318.822 167.278 322.616 184.014C340.328 262.138 316.991 283.461 296.994 303.853C289.365 319.09 296.655 314.741 296.655 314.741C323.131 293.273 344.146 272.219 343.55 221.491C342.897 166.026 293.395 77.0459 218.933 55.1317C136.332 53.2849 70.1808 97.8645 36.831 140.751C83.7186 104.004 159.98 54.4124 220.17 68.6515Z" fill="#57ABFF"/>
<path d="M67.9902 221.929C100.132 169.084 192.275 158.583 209.364 160.146C289.137 167.442 302.206 196.226 315.42 221.546C327.553 233.511 325.671 225.234 325.671 225.234C313.435 193.419 299.905 166.927 251.476 151.818C198.524 135.299 98.6015 154.882 54.7497 218.928C27.4681 296.916 49.4241 373.605 79.906 418.575C59.4462 362.627 35.8481 274.773 67.9902 221.929Z" fill="#57ABFF"/>
</g>
<defs>
<clipPath id="clip0_2_2">
<rect width="500" height="500" fill="white"/>
</clipPath>
</defs>
</svg>