<svg viewBox="0 0 200 150" xmlns="http://www.w3.org/2000/svg">
  <defs></defs>
  <path style="fill: rgb(112, 120, 140);" d="M 7.117 141.631 L 7.176 102.687 C 7.173 98.953 10.767 94.677 14.583 94.804 L 62.984 94.889 C 67.264 94.696 70.604 97.51 70.473 101.917 L 70.625 126.113 C 70.664 129.747 67.978 133.288 63.919 132.89 L 15.553 133.134 L 7.117 141.631 Z"></path>
  <path style="fill: rgb(95, 103, 122);" d="M 134.709 52.135 L 134.765 91.079 C 134.762 94.813 138.203 99.089 141.856 98.962 L 188.191 98.877 C 192.288 99.07 195.486 96.256 195.36 91.849 L 195.506 67.653 C 195.543 64.019 192.971 60.478 189.086 60.876 L 142.785 60.632 L 134.709 52.135 Z" transform="matrix(-1, 0, 0, -1, 330.215393, 151.099758)"></path>
  <path style="fill: rgb(112, 120, 140);" d="M 6.491 52.522 L 6.55 13.578 C 6.547 9.844 10.141 5.568 13.957 5.695 L 62.358 5.78 C 66.638 5.587 69.978 8.401 69.847 12.808 L 69.999 37.004 C 70.038 40.638 67.352 44.179 63.293 43.781 L 14.927 44.025 L 6.491 52.522 Z"></path>
  <path style="fill: rgb(95, 103, 122);" d="M 156.418 148.941 C 171.21 148.941 180.456 132.878 173.059 120.027 C 169.167 113.265 161.595 109.527 153.88 110.558" transform="matrix(0.080938, -0.996719, 0.996719, 0.080938, 22.19561, 283.400605)"></path>
  <ellipse style="fill: rgb(78, 85, 105);" cx="163.826" cy="107.11" rx="10" ry="10"></ellipse>
  <path style="fill: rgb(95, 103, 122);" d="M 158.166 52.777 C 172.958 52.777 182.204 36.714 174.807 23.863 C 170.915 17.101 163.343 13.363 155.628 14.394" transform="matrix(0.080938, -0.996719, 0.996719, 0.080938, 119.650627, 196.762199)"></path>
  <ellipse style="fill: rgb(78, 85, 105);" cx="165.574" cy="10.946" rx="10" ry="10"></ellipse>
  <path style="fill: rgb(95, 103, 122);" d="M 29.121 99.943 C 43.913 99.943 53.159 83.88 45.762 71.029 C 41.87 64.267 34.298 60.529 26.583 61.56" transform="matrix(0.080938, -0.996719, 0.996719, 0.080938, -45.960988, 111.489052)"></path>
  <ellipse style="fill: rgb(78, 85, 105);" cx="36.529" cy="58.112" rx="10" ry="10"></ellipse>
  <path d="M 93.655 67.416 C 99.134 62.935 104.493 58.299 110.091 53.95 C 107.155 58.466 104.135 62.923 101.199 67.44 C 98.68 67.452 96.162 67.452 93.655 67.416 Z M 98.286 69.913 C 100.817 69.913 103.335 69.913 105.854 69.949 C 100.339 74.406 95.004 79.077 89.394 83.415 C 92.33 78.898 95.35 74.43 98.286 69.913 Z" style="fill: rgb(112, 120, 140);"></path>
  <ellipse style="fill: none; stroke-width: 5px; stroke: rgb(78, 85, 105);" cx="100.749" cy="69.551" rx="25" ry="25"></ellipse>
  <line style="fill: rgb(216, 216, 216); stroke: rgb(157, 162, 166); stroke-linecap: round; stroke-width: 3px;" x1="136.393" y1="118.514" x2="62.339" y2="87.141"></line>
  <line style="fill: rgb(216, 216, 216); stroke: rgb(157, 162, 166); stroke-linecap: round; stroke-width: 3px;" x1="52.776" y1="63.013" x2="74.282" y2="53.99"></line>
  <line style="fill: rgb(216, 216, 216); stroke: rgb(157, 162, 166); stroke-linecap: round; stroke-width: 3px;" x1="110.442" y1="40.667" x2="142.606" y2="29.934"></line>
</svg>